<svg xmlns="http://www.w3.org/2000/svg" viewBox="0 0 815.15 200"><path fill="#ffdece" d="M100 100h100v100H100z"/><path fill="#ff9f93" d="M0 100h100v100H0zM100 0h100v100H100z"/><path fill="#ff8572" d="M0 0h100v100H0z"/><g><path d="M358.92 161.57h-14.6v-56.84h-64.49v56.84h-14.6V36.94h14.6v54.67h64.49V36.94h14.6zM463.35 161.57h-66V36.94h63.21v13.21H411.9v41.46h45v13.12h-45v43.63h51.45zM593.56 161.57h-17.9l-64.2-99.34a41.47 41.47 0 0 1-4-7.82h-.53q.71 4 .7 17.12v90h-14.6V36.94h18.95l62.4 97.78c2.61 4.05 4.29 6.84 5 8.34h.35q-.87-5.38-.87-18.34V36.94h14.7zM705.56 50.15h-36v111.42h-14.6V50.15h-35.9V36.94h86.5zM815.15 161.57h-16.17l-13.21-34.94h-52.84l-12.43 34.94h-16.25l47.8-124.63h15.12zm-34.16-48.06l-19.55-53.1a50.68 50.68 0 0 1-1.88-8.38h-.34a46.89 46.89 0 0 1-2 8.35l-19.38 53.1z"/></g></svg>